<?xml version="1.0" standalone="no"?>
<!DOCTYPE svg PUBLIC "-//W3C//DTD SVG 20010904//EN"
 "http://www.w3.org/TR/2001/REC-SVG-20010904/DTD/svg10.dtd">
<svg version="1.0" xmlns="http://www.w3.org/2000/svg"
 width="858.000000pt" height="852.000000pt" viewBox="0 0 858.000000 852.000000"
 preserveAspectRatio="xMidYMid meet">
<metadata>
Created by potrace 1.16, written by Peter Selinger 2001-2019
</metadata>
<g transform="translate(0.000000,852.000000) scale(0.100000,-0.100000)"
fill="#000000" stroke="none">
<path d="M2 4263 l-2 -4263 4290 0 4290 0 0 4260 c0 3780 -2 4260 -15 4260
-13 0 -15 -479 -15 -4255 l0 -4255 -4270 0 -4270 0 -3 4258 -2 4257 -3 -4262z"/>
<path d="M5691 6158 c-52 -25 -81 -69 -81 -121 0 -89 60 -157 139 -157 62 0
107 30 139 92 19 36 23 56 18 82 -12 65 -85 126 -148 126 -13 0 -43 -10 -67
-22z m135 -46 c45 -36 55 -82 29 -132 -19 -37 -32 -38 -46 -2 -8 19 -7 37 2
65 15 47 8 56 -57 63 l-49 6 2 -86 c2 -89 -5 -102 -31 -64 -34 49 -30 103 12
151 21 23 109 23 138 -1z"/>
<path d="M3355 6090 c-92 -15 -246 -67 -315 -108 -132 -78 -254 -201 -334
-336 -45 -75 -91 -215 -105 -319 -14 -100 -14 -1630 -1 -1737 44 -337 287
-642 595 -746 66 -22 106 -28 230 -34 116 -6 614 -6 753 -1 22 1 33 31 11 31
-9 0 -10 35 -5 128 9 163 11 169 48 177 16 4 32 4 36 0 8 -7 4 -291 -4 -317
-6 -20 52 -22 566 -22 284 0 285 0 375 28 316 99 543 334 616 641 l24 100 0
890 0 890 -23 85 c-88 318 -316 551 -619 631 -71 19 -105 21 -372 20 -161 0
-295 -2 -297 -4 -2 -2 2 -209 8 -461 l11 -458 -32 -25 c-59 -46 -77 -117 -47
-186 19 -45 54 -74 106 -88 37 -10 51 -9 81 4 56 23 92 78 97 147 4 55 2 59
-33 98 -20 23 -45 44 -55 47 -15 5 -17 15 -15 65 l2 60 236 6 235 6 20 -44
c25 -55 46 -74 104 -89 37 -10 55 -10 87 0 84 25 150 112 151 197 0 53 -45
122 -100 153 -82 46 -196 10 -240 -75 -8 -16 -19 -33 -25 -37 -12 -10 -475 -3
-475 6 0 4 0 126 0 272 l0 264 228 0 c252 -1 286 -6 407 -66 154 -76 252 -172
324 -316 96 -193 92 -138 88 -1128 l-3 -864 -26 -82 c-54 -167 -143 -294 -279
-399 -100 -77 -275 -144 -374 -144 -50 0 -53 1 -58 30 -8 39 -32 39 -52 0 -18
-34 -27 -37 -155 -44 l-95 -6 4 297 c1 164 4 299 6 301 1 2 92 5 201 7 110 3
211 8 226 11 23 5 30 1 38 -20 35 -93 135 -149 223 -125 84 22 155 126 144
209 -3 22 -18 58 -33 81 -80 118 -253 117 -314 -2 -18 -35 -21 -36 -87 -42
-37 -4 -143 -7 -235 -7 l-168 0 0 50 c0 45 4 54 39 89 74 74 79 161 13 230
-52 55 -103 67 -160 40 -93 -46 -120 -150 -62 -242 16 -26 34 -47 40 -47 12 0
14 -420 3 -738 l-6 -204 -66 7 c-36 4 -69 10 -73 13 -3 4 -7 90 -8 192 -2 156
0 193 15 232 13 35 15 61 10 95 -6 42 -14 56 -67 106 l-61 58 5 130 c6 129 6
131 36 160 46 45 57 137 21 182 -44 57 -157 56 -198 -2 -31 -43 -28 -117 6
-167 25 -37 27 -47 31 -181 l4 -142 -39 -16 c-89 -36 -120 -156 -68 -269 22
-48 24 -61 15 -98 -5 -24 -10 -64 -10 -90 0 -26 -5 -82 -11 -124 l-12 -77 -65
6 c-36 4 -66 8 -68 10 -2 2 -6 204 -9 449 l-6 447 40 40 c73 73 75 166 6 236
-19 19 -53 39 -76 45 -34 10 -46 8 -77 -8 -53 -27 -93 -82 -99 -134 -5 -54 29
-127 70 -146 26 -13 28 -17 25 -70 l-3 -57 -241 -2 -242 -2 -15 39 c-22 58
-85 95 -158 95 -64 0 -92 -15 -142 -77 -32 -40 -44 -101 -33 -163 13 -65 106
-145 171 -145 60 0 148 60 181 123 l15 27 234 0 235 0 0 -301 0 -301 -106 4
c-97 3 -107 5 -125 27 -19 23 -26 71 -11 71 4 0 13 15 20 33 7 17 18 41 24 52
33 58 38 74 38 116 0 51 -26 98 -73 133 -39 28 -126 28 -164 0 -53 -40 -68
-70 -68 -139 0 -61 2 -66 38 -103 37 -37 90 -62 135 -62 23 0 29 -22 23 -82
l-3 -38 -62 0 c-74 0 -200 29 -280 65 -200 89 -354 276 -418 510 -22 79 -22
92 -26 909 -2 556 0 852 8 900 18 122 57 216 126 308 103 138 240 234 396 278
88 25 256 39 267 22 5 -8 17 -9 41 -2 19 6 79 10 134 10 85 0 97 -2 92 -16 -3
-9 -6 -132 -6 -273 l0 -258 -241 -6 c-163 -5 -247 -11 -256 -19 -11 -9 -16 -9
-23 1 -4 8 -13 10 -20 6 -7 -4 -11 -2 -9 6 3 29 -2 41 -15 36 -11 -4 -13 -1
-9 11 6 15 5 15 -10 3 -16 -12 -22 -8 -18 13 1 5 -6 5 -16 1 -10 -5 -35 -10
-56 -13 -60 -7 -50 -17 14 -14 l59 4 16 -38 c14 -34 14 -56 -3 -101 -6 -16 -5
-17 13 -3 17 14 18 13 7 -1 -9 -11 -29 -16 -68 -15 -33 1 -54 -3 -51 -9 2 -5
16 -9 31 -8 26 2 27 1 9 -13 -16 -13 -14 -13 13 1 41 19 42 19 40 -4 0 -11 -5
-17 -9 -15 -4 3 -13 2 -19 -2 -6 -3 -29 -7 -51 -8 -36 -2 -38 -1 -22 11 18 13
13 17 -18 14 -24 -3 -30 15 -10 30 15 13 16 12 3 -3 -11 -15 -11 -18 1 -18 7
0 14 9 15 19 1 14 -5 18 -22 17 -13 0 -21 -4 -19 -8 2 -4 -1 -10 -7 -14 -8 -4
-9 -3 -5 4 4 7 2 12 -4 12 -6 0 -9 4 -5 9 3 5 1 12 -5 16 -6 4 -10 -5 -10 -19
0 -14 -4 -26 -8 -26 -5 0 -6 14 -4 31 3 20 1 30 -6 26 -5 -4 -12 3 -15 15 -10
35 -20 12 -13 -27 13 -67 108 -146 176 -144 40 1 102 40 135 86 l30 42 190 0
c105 1 214 4 243 7 l52 7 0 -62 c0 -62 -1 -63 -46 -104 -73 -67 -78 -148 -13
-222 97 -110 259 -39 259 113 0 50 -3 55 -47 98 l-46 45 6 460 7 459 -113 0
c-61 0 -175 2 -252 5 -77 2 -167 0 -200 -5z m2006 -679 c29 -24 31 -91 4 -121
-33 -36 -97 -25 -120 21 -22 42 -19 75 11 98 33 26 75 27 105 2z m-2161 -1779
c27 -34 25 -77 -5 -107 -70 -71 -177 29 -115 108 33 42 87 42 120 -1z m2165
14 c48 -49 38 -114 -21 -136 -39 -15 -53 -12 -85 19 -38 38 -39 83 -3 116 35
32 78 32 109 1z m-1091 -259 c37 -30 40 -76 6 -112 -33 -35 -72 -33 -104 6
-34 40 -33 64 3 100 36 35 57 36 95 6z"/>
<path d="M4060 6038 c1 -29 7 -116 14 -193 12 -120 12 -144 0 -167 -21 -41
-28 -111 -15 -151 14 -43 75 -107 101 -107 19 0 20 -8 20 -140 0 -139 0 -140
-26 -156 -35 -23 -54 -65 -54 -116 1 -53 15 -80 60 -113 51 -38 110 -35 156 8
63 58 63 147 0 204 l-36 33 0 134 0 134 36 22 c84 53 113 158 66 246 -20 36
-21 47 -12 94 5 29 10 113 10 186 l0 134 -56 0 -57 0 7 -42 c4 -23 4 -97 0
-165 l-7 -124 -41 3 -41 3 0 95 c0 52 -1 125 -3 163 l-2 67 -60 0 -60 0 0 -52z
m218 -401 c31 -28 31 -90 0 -111 -33 -23 -75 -20 -103 9 -42 41 -28 96 28 120
34 14 40 13 75 -18z"/>
<path d="M6464 5970 c36 -129 36 -146 33 -1651 l-2 -1464 -32 -93 c-104 -309
-352 -521 -675 -578 -83 -15 -246 -17 -1568 -18 l-1475 -1 -105 27 c-133 33
-202 59 -271 101 -122 74 -117 72 -74 32 45 -42 154 -100 228 -122 84 -25 175
-74 227 -122 27 -26 50 -49 50 -53 0 -10 54 -62 86 -83 16 -10 37 -29 48 -42
10 -13 21 -22 24 -19 2 3 18 -6 34 -19 16 -14 34 -25 39 -25 5 0 9 -6 9 -14 0
-16 21 -26 54 -26 12 0 29 -9 39 -20 9 -11 26 -20 37 -20 12 0 38 -9 60 -20
22 -11 51 -20 66 -20 14 0 38 -9 54 -20 15 -10 46 -22 69 -26 23 -4 48 -13 56
-20 10 -11 130 -13 611 -14 340 -1 629 3 669 8 88 12 525 15 525 3 0 -5 88 -9
196 -9 148 0 198 -3 204 -12 6 -10 26 -11 92 -3 70 9 86 8 101 -5 34 -30 507
-21 528 10 3 4 42 10 87 12 47 3 94 12 112 21 18 9 34 14 37 11 6 -6 74 21 83
32 3 4 22 16 43 27 21 11 48 30 59 43 12 12 29 22 38 22 19 0 100 152 100 187
0 10 4 23 8 28 16 19 31 91 38 177 3 49 9 88 14 88 4 0 11 71 15 158 4 98 11
160 18 164 15 9 12 311 -3 316 -14 5 -14 562 0 562 6 0 10 18 10 40 0 22 -4
40 -9 40 -4 0 -10 70 -13 156 -3 93 -10 159 -16 163 -7 4 -12 129 -16 356 -9
594 -17 776 -34 810 -10 20 -11 30 -3 33 14 5 15 49 1 57 -5 3 -10 28 -10 56
0 36 -4 49 -15 49 -9 0 -17 14 -21 38 -3 20 -15 52 -25 70 -10 18 -19 43 -19
55 0 12 -9 28 -20 35 -11 7 -20 19 -20 27 0 8 -7 15 -15 15 -8 0 -15 4 -15 8
0 21 -108 136 -165 177 -16 11 -42 34 -60 50 -17 17 -38 29 -48 27 -13 -3 -17
4 -17 25 0 30 -47 214 -57 223 -3 3 -3 -6 1 -20z"/>
<path d="M4903 5811 c-82 -51 -111 -167 -57 -231 92 -109 248 -61 262 81 4 41
0 56 -22 89 -27 41 -89 80 -128 80 -13 0 -37 -9 -55 -19z"/>
<path d="M3478 5813 c21 -8 13 -23 -14 -23 -14 0 -23 -3 -20 -8 2 -4 -3 -16
-11 -27 -13 -16 -15 -17 -10 -2 4 9 2 17 -3 17 -18 0 -10 17 13 28 12 6 16 11
8 11 -7 1 -30 -16 -51 -37 -85 -85 -53 -210 63 -243 72 -21 167 66 167 154 0
40 -43 111 -77 126 -13 6 -36 11 -51 10 -15 0 -21 -3 -14 -6z"/>
<path d="M2883 4686 c4 -10 7 -114 7 -232 l0 -214 148 0 147 0 -3 50 -4 49
-91 3 -92 3 -3 173 -2 172 -39 0 c-22 0 -47 3 -57 7 -14 5 -16 3 -11 -11z"/>
<path d="M3378 4692 l-148 -3 0 -224 0 -225 156 0 155 0 -3 48 -3 47 -103 3
-103 3 3 37 3 37 83 3 83 3 -3 42 -3 42 -82 3 -83 3 0 39 0 40 103 0 102 0 -1
50 c-1 28 -3 52 -5 53 -2 1 -70 1 -151 -1z"/>
<path d="M3744 4654 c15 -109 130 -404 157 -404 9 0 30 -3 47 -6 30 -6 31 -5
47 52 10 33 25 73 35 90 9 16 27 61 40 100 12 38 33 95 46 126 34 82 33 85
-29 84 l-54 -1 -43 -137 c-24 -76 -47 -138 -51 -138 -8 0 -20 31 -71 179 l-33
94 -49 1 -48 1 6 -41z"/>
<path d="M4170 4535 c0 -191 9 -221 83 -272 33 -23 51 -28 103 -28 70 0 95 13
148 79 l31 38 3 174 3 174 -55 -3 -56 -2 0 -157 c0 -145 -2 -160 -20 -178 -23
-23 -76 -26 -103 -6 -28 22 -37 71 -37 208 l0 128 -34 0 c-19 0 -41 3 -50 6
-14 5 -16 -13 -16 -161z"/>
<path d="M4764 4691 c-6 -7 -5 -385 2 -420 6 -30 9 -31 55 -31 l49 0 0 90 0
90 75 0 75 0 0 -89 0 -89 49 0 48 0 7 82 c3 44 6 147 6 228 l0 147 -55 -2 -55
-2 0 -86 c0 -47 -2 -88 -4 -90 -2 -2 -37 -3 -78 -1 l-73 3 3 89 3 89 -51 -2
c-28 -1 -53 -4 -56 -6z"/>
<path d="M5328 4651 c-11 -25 -42 -95 -68 -156 -70 -160 -103 -245 -97 -251 2
-3 28 -2 57 2 51 7 52 7 76 63 17 39 27 52 33 42 6 -9 25 -12 62 -10 l53 4 25
-52 25 -53 53 0 52 0 -21 58 c-12 31 -52 131 -89 222 l-67 165 -37 6 c-37 6
-38 5 -57 -40z"/>
<path d="M4895 3380 c-53 -27 -77 -63 -83 -120 -6 -61 10 -107 54 -159 31 -35
41 -41 75 -41 51 0 86 19 132 69 42 47 52 76 44 133 -14 107 -128 167 -222
118z"/>
</g>
</svg>
